<mxfile host="app.diagrams.net" modified="2023-09-19T04:01:41.352Z" agent="Mozilla/5.0 (Macintosh; Intel Mac OS X 10_15_7) AppleWebKit/537.36 (KHTML, like Gecko) Chrome/116.0.0.0 Safari/537.36" version="21.7.5" etag="7A4UPU38ywdBrjguScJl" type="github">
  <diagram name="第 1 页" id="8buJ6B8Z57eMmDjPGeam">
    <mxGraphModel>
      <root>
        <mxCell id="0" />
        <mxCell id="1" parent="0" />
      </root>
    </mxGraphModel>
  </diagram>
</mxfile>
